<?xml version="1.0" encoding="UTF-8" standalone="no"?>
<!-- Created with Inkscape (http://www.inkscape.org/) -->

<svg
   width="37.189857mm"
   height="4.5190892mm"
   viewBox="0 0 37.189857 4.5190892"
   version="1.1"
   id="svg5"
   sodipodi:docname="dessin.svg"
   inkscape:version="1.2.2 (b0a8486541, 2022-12-01)"
   xmlns:inkscape="http://www.inkscape.org/namespaces/inkscape"
   xmlns:sodipodi="http://sodipodi.sourceforge.net/DTD/sodipodi-0.dtd"
   xmlns:xlink="http://www.w3.org/1999/xlink"
   xmlns="http://www.w3.org/2000/svg"
   xmlns:svg="http://www.w3.org/2000/svg">
  <sodipodi:namedview
     id="namedview7"
     pagecolor="#ffffff"
     bordercolor="#000000"
     borderopacity="0.25"
     inkscape:showpageshadow="2"
     inkscape:pageopacity="0.0"
     inkscape:pagecheckerboard="0"
     inkscape:deskcolor="#d1d1d1"
     inkscape:document-units="mm"
     showgrid="false"
     inkscape:zoom="7.1268238"
     inkscape:cx="54.30189"
     inkscape:cy="26.519528"
     inkscape:window-width="3436"
     inkscape:window-height="1401"
     inkscape:window-x="1920"
     inkscape:window-y="18"
     inkscape:window-maximized="1"
     inkscape:current-layer="layer1" />
  <defs
     id="defs2">
    <linearGradient
       inkscape:collect="always"
       id="linearGradient971">
      <stop
         style="stop-color:#000000;stop-opacity:1;"
         offset="0"
         id="stop967" />
      <stop
         style="stop-color:#000000;stop-opacity:0;"
         offset="1"
         id="stop969" />
    </linearGradient>
    <linearGradient
       inkscape:collect="always"
       xlink:href="#linearGradient971"
       id="linearGradient973"
       x1="15.899823"
       y1="29.932669"
       x2="53.089676"
       y2="29.932669"
       gradientUnits="userSpaceOnUse" />
  </defs>
  <g
     inkscape:label="Calque 1"
     inkscape:groupmode="layer"
     id="layer1"
     transform="translate(-15.899821,-27.673122)">
    <g
       aria-label="SimpleWishlist"
       id="text113"
       style="font-size:4.93889px;fill:url(#linearGradient973);stroke-width:0.264583"
       inkscape:highlight-color="#ee3b5b">
      <path
         d="m 17.183935,31.278517 q -0.350662,0 -0.656873,-0.158045 -0.138289,-0.06914 -0.232128,-0.162983 -0.06914,0.113594 -0.172861,0.202494 -0.0889,0.06421 -0.09878,0.06914 h -0.123472 v -0.938389 h 0.197556 q 0.07408,0.242005 0.207433,0.434622 0.301273,0.429684 0.780345,0.429684 0.281517,0 0.449439,-0.167923 0.167922,-0.167922 0.167922,-0.449439 0,-0.162983 -0.09878,-0.291394 -0.09384,-0.128411 -0.237066,-0.227189 -0.143228,-0.09878 -0.400051,-0.246945 -0.325966,-0.182739 -0.528461,-0.330905 -0.202494,-0.148167 -0.345722,-0.370417 -0.143228,-0.227189 -0.143228,-0.5334 0,-0.242006 0.13335,-0.434622 0.138289,-0.197556 0.409928,-0.311151 0.271639,-0.118533 0.66675,-0.118533 0.286456,0 0.572911,0.162983 0.108656,0.05927 0.217312,0.158045 0.08396,-0.128411 0.172861,-0.202495 0.0889,-0.06421 0.09878,-0.06914 h 0.123472 v 0.938389 h -0.197556 q -0.0642,-0.237067 -0.192617,-0.429683 -0.118533,-0.187678 -0.296333,-0.31115 -0.172861,-0.123473 -0.40005,-0.123473 -0.192617,0 -0.330906,0.153106 -0.138289,0.153106 -0.138289,0.390172 0,0.182739 0.103717,0.330906 0.108656,0.143228 0.261761,0.251883 0.158045,0.108656 0.424745,0.261761 0.31115,0.1778 0.503767,0.316089 0.192616,0.138289 0.325966,0.345723 0.13335,0.202494 0.13335,0.469194 0,0.2667 -0.153105,0.48895 -0.153106,0.217312 -0.459317,0.345723 -0.306211,0.128411 -0.745772,0.128411 z"
         style="font-family:'Yeseva One';-inkscape-font-specification:'Yeseva One';fill:#344e41"
         id="path2779" />
      <path
         d="m 18.863154,31.13035 0.296333,-0.07408 v -2.173112 l -0.296333,-0.07408 v -0.07408 h 0.642055 q 0.444501,0 0.444501,0.444501 v 1.876778 l 0.296333,0.07408 v 0.07408 h -1.382889 z m 0.642055,-2.691695 q -0.148166,0 -0.246944,-0.09878 -0.09878,-0.09878 -0.09878,-0.246944 0,-0.148167 0.09878,-0.246945 0.09878,-0.09878 0.246944,-0.09878 0.148167,0 0.246945,0.09878 0.09878,0.09878 0.09878,0.246945 0,0.148166 -0.09878,0.246944 -0.09878,0.09878 -0.246945,0.09878 z"
         style="font-family:'Yeseva One';-inkscape-font-specification:'Yeseva One';fill:#344e41"
         id="path2781" />
      <path
         d="m 20.542377,31.13035 0.296333,-0.07408 v -2.173112 l -0.296333,-0.07408 v -0.07408 h 0.4445 q 0.291395,0 0.459317,0.187678 0.06421,0.07408 0.108655,0.182739 0.07408,-0.138289 0.158045,-0.22225 0.22225,-0.22225 0.508706,-0.22225 0.286455,0 0.503766,0.128411 0.217312,0.123472 0.335845,0.340784 0.07408,-0.143228 0.158044,-0.232128 0.227189,-0.237067 0.508706,-0.237067 0.261761,0 0.469195,0.108656 0.212372,0.108655 0.325966,0.296333 0.118534,0.187678 0.118534,0.409928 v 1.580445 l 0.296333,0.07408 v 0.07408 h -0.642056 q -0.4445,0 -0.4445,-0.4445 v -1.284111 q 0,-0.321028 -0.09878,-0.479072 -0.09878,-0.162984 -0.222251,-0.162984 -0.143227,0 -0.291394,0.197556 -0.05927,0.09384 -0.103717,0.197555 v 1.82739 l 0.296334,0.07408 v 0.07408 h -1.38289 v -0.07408 l 0.296334,-0.07408 v -1.580445 q 0,-0.321028 -0.09878,-0.479072 -0.09878,-0.162984 -0.22225,-0.162984 -0.143228,0 -0.291394,0.197556 -0.05927,0.09384 -0.103717,0.197555 v 1.82739 l 0.296333,0.07408 v 0.07408 h -1.382889 z"
         style="font-family:'Yeseva One';-inkscape-font-specification:'Yeseva One';fill:#344e41"
         id="path2783" />
      <path
         d="m 25.184938,32.118128 0.296333,-0.07408 v -3.16089 l -0.296333,-0.07408 v -0.07408 h 0.4445 q 0.291394,0 0.459316,0.187678 0.06421,0.07408 0.108656,0.182739 0.06421,-0.128411 0.162983,-0.22225 0.22225,-0.22225 0.553156,-0.22225 0.291395,0 0.518583,0.153106 0.227189,0.148166 0.360539,0.4445 0.13335,0.291394 0.13335,0.7112 0,0.632178 -0.296333,0.972961 -0.291394,0.335845 -0.790222,0.335845 -0.237067,0 -0.414867,-0.09878 -0.07408,-0.03457 -0.153106,-0.09878 v 0.963084 l 0.296334,0.07408 v 0.07408 H 25.184938 Z M 26.64191,31.13035 q 0.212372,0 0.325967,-0.246944 0.118533,-0.246945 0.118533,-0.913695 0,-0.637117 -0.108655,-0.884061 -0.103717,-0.251884 -0.261762,-0.251884 -0.187677,0 -0.335844,0.197556 -0.06421,0.08396 -0.108656,0.197555 v 1.703917 q 0.06914,0.06914 0.108656,0.09878 0.13335,0.09878 0.261761,0.09878 z"
         style="font-family:'Yeseva One';-inkscape-font-specification:'Yeseva One';fill:#344e41"
         id="path2785" />
      <path
         d="m 28.321133,31.13035 0.296333,-0.07408 V 27.89538 L 28.321133,27.8213 v -0.07408 h 0.642055 q 0.444501,0 0.444501,0.444501 v 2.864556 l 0.296333,0.07408 v 0.07408 h -1.382889 z"
         style="font-family:'Yeseva One';-inkscape-font-specification:'Yeseva One';fill:#344e41"
         id="path2787" />
      <path
         d="m 31.333856,31.278517 q -0.632178,0 -0.982839,-0.345723 -0.350661,-0.350661 -0.350661,-0.963083 0,-0.40005 0.153105,-0.696384 0.153106,-0.296333 0.424745,-0.454377 0.276578,-0.158045 0.632178,-0.158045 0.3556,0 0.6223,0.13335 0.271639,0.13335 0.414867,0.360539 0.148166,0.22225 0.148166,0.493889 0,0.123472 -0.02469,0.212372 l -0.02469,0.08396 q -0.212373,0.04445 -0.459317,0.07408 -0.518584,0.07408 -1.047045,0.07408 0,0.572911 0.158045,0.819856 0.158044,0.242006 0.434622,0.242006 0.192617,0 0.3556,-0.0889 0.167922,-0.09384 0.261761,-0.242006 0.09878,-0.153106 0.09878,-0.31115 h 0.123472 q 0,0.197555 -0.118533,0.375355 -0.118534,0.177801 -0.330906,0.286456 -0.212372,0.103717 -0.48895,0.103717 z m -0.493889,-1.308806 q 0.316089,0 0.513645,-0.0247 0.08396,-0.0049 0.1778,-0.02469 0.0049,-0.02469 0.02469,-0.108656 0.0247,-0.123472 0.0247,-0.261761 0,-0.409928 -0.108656,-0.597605 -0.108656,-0.192617 -0.261761,-0.192617 -0.370417,0 -0.370417,1.210028 z"
         style="font-family:'Yeseva One';-inkscape-font-specification:'Yeseva One';fill:#344e41"
         id="path2789" />
      <path
         d="m 32.741437,27.870683 -0.271639,-0.04939 v -0.07408 h 0.592667 q 0.261761,0 0.429683,0.118534 0.167923,0.118533 0.237067,0.301272 l 0.745772,1.901473 0.434623,-1.274234 -0.365478,-0.923572 -0.271639,-0.04939 v -0.07408 h 0.592667 q 0.261761,0 0.424744,0.118534 0.162984,0.113594 0.242006,0.301272 l 0.745772,1.901473 0.7112,-2.099028 -0.370416,-0.148167 v -0.07408 h 0.913694 v 0.07408 l -0.395111,0.148167 -1.11125,3.284361 h -0.148167 l -0.889,-2.257072 -0.765528,2.257072 h -0.148167 z"
         style="font-family:'Yeseva One';-inkscape-font-specification:'Yeseva One';fill:#344e41"
         id="path2791" />
      <path
         d="m 37.482772,31.13035 0.296333,-0.07408 v -2.173112 l -0.296333,-0.07408 v -0.07408 h 0.642056 q 0.4445,0 0.4445,0.444501 v 1.876778 l 0.296333,0.07408 v 0.07408 h -1.382889 z m 0.642056,-2.691695 q -0.148167,0 -0.246945,-0.09878 -0.09878,-0.09878 -0.09878,-0.246944 0,-0.148167 0.09878,-0.246945 0.09878,-0.09878 0.246945,-0.09878 0.148166,0 0.246944,0.09878 0.09878,0.09878 0.09878,0.246945 0,0.148166 -0.09878,0.246944 -0.09878,0.09878 -0.246944,0.09878 z"
         style="font-family:'Yeseva One';-inkscape-font-specification:'Yeseva One';fill:#344e41"
         id="path2793" />
      <path
         d="m 40.322633,31.278517 q -0.306211,0 -0.548217,-0.13335 -0.118533,-0.06421 -0.192616,-0.138289 -0.07902,0.108655 -0.172861,0.167922 -0.04445,0.02963 -0.09878,0.05433 h -0.123473 v -0.839611 h 0.197556 q 0.06421,0.207433 0.187678,0.385233 0.261761,0.380295 0.651933,0.380295 0.207434,0 0.31115,-0.09878 0.108656,-0.103717 0.108656,-0.296334 0,-0.162983 -0.148167,-0.271639 -0.143227,-0.113594 -0.454378,-0.276577 -0.2667,-0.13335 -0.434622,-0.237067 -0.162983,-0.108656 -0.281517,-0.2667 -0.113594,-0.162984 -0.113594,-0.380295 0,-0.296333 0.251883,-0.479072 0.256823,-0.187678 0.785284,-0.187678 0.261761,0 0.484011,0.138289 0.108656,0.06421 0.187678,0.13335 0.06421,-0.0889 0.172861,-0.167922 0.08396,-0.04939 0.09878,-0.05433 h 0.123472 v 0.839611 h -0.197556 q -0.07408,-0.212372 -0.182738,-0.380294 -0.246945,-0.385234 -0.587728,-0.385234 -0.13335,0 -0.227189,0.09878 -0.09384,0.09878 -0.09384,0.246945 0,0.187677 0.158044,0.316089 0.158045,0.123472 0.479073,0.286455 0.261761,0.13335 0.414866,0.237067 0.158045,0.09878 0.2667,0.246944 0.113595,0.148167 0.113595,0.345723 0,0.716139 -1.135945,0.716139 z"
         style="font-family:'Yeseva One';-inkscape-font-specification:'Yeseva One';fill:#344e41"
         id="path2795" />
      <path
         d="m 41.829,31.13035 0.296333,-0.07408 V 27.89538 L 41.829,27.821294 v -0.07408 h 0.642055 q 0.4445,0 0.4445,0.444501 v 0.790222 q 0.07408,-0.09878 0.153106,-0.158045 0.212372,-0.162983 0.48895,-0.162983 0.276578,0 0.493889,0.118533 0.22225,0.113595 0.345722,0.301273 0.123473,0.187678 0.123473,0.395111 v 1.580445 l 0.296333,0.07408 v 0.07408 h -0.642056 q -0.4445,0 -0.4445,-0.4445 V 29.47582 q 0,-0.31115 -0.113594,-0.474133 -0.108656,-0.167923 -0.256823,-0.167923 -0.187677,0 -0.335844,0.197556 -0.06421,0.08396 -0.108656,0.197555 v 1.82739 l 0.296334,0.07408 v 0.07408 H 41.829 Z"
         style="font-family:'Yeseva One';-inkscape-font-specification:'Yeseva One';fill:#344e41"
         id="path2797" />
      <path
         d="M 45.113366,31.13035 45.4097,31.05627 V 27.89538 L 45.113366,27.8213 v -0.07408 h 0.642056 q 0.4445,0 0.4445,0.444501 v 2.864556 l 0.296333,0.07408 v 0.07408 h -1.382889 z"
         style="font-family:'Yeseva One';-inkscape-font-specification:'Yeseva One';fill:#344e41"
         id="path2799" />
      <path
         d="m 46.79259,31.13035 0.296334,-0.07408 v -2.173112 l -0.296334,-0.07408 v -0.07408 h 0.642056 q 0.4445,0 0.4445,0.444501 v 1.876778 l 0.296333,0.07408 v 0.07408 H 46.79259 Z m 0.642056,-2.691695 q -0.148167,0 -0.246945,-0.09878 -0.09878,-0.09878 -0.09878,-0.246944 0,-0.148167 0.09878,-0.246945 0.09878,-0.09878 0.246945,-0.09878 0.148167,0 0.246944,0.09878 0.09878,0.09878 0.09878,0.246945 0,0.148166 -0.09878,0.246944 -0.09878,0.09878 -0.246944,0.09878 z"
         style="font-family:'Yeseva One';-inkscape-font-specification:'Yeseva One';fill:#344e41"
         id="path2801" />
      <path
         d="m 49.632451,31.278517 q -0.306211,0 -0.548216,-0.13335 -0.118534,-0.06421 -0.192617,-0.138289 -0.07902,0.108655 -0.172861,0.167922 -0.04445,0.02963 -0.09878,0.05433 h -0.123472 v -0.839611 h 0.197555 q 0.06421,0.207433 0.187678,0.385233 0.261761,0.380295 0.651934,0.380295 0.207433,0 0.31115,-0.09878 0.108655,-0.103717 0.108655,-0.296334 0,-0.162983 -0.148166,-0.271639 -0.143228,-0.113594 -0.454378,-0.276577 -0.2667,-0.13335 -0.434623,-0.237067 -0.162983,-0.108656 -0.281516,-0.2667 -0.113595,-0.162984 -0.113595,-0.380295 0,-0.296333 0.251884,-0.479072 0.256822,-0.187678 0.785283,-0.187678 0.261761,0 0.484011,0.138289 0.108656,0.06421 0.187678,0.13335 0.06421,-0.0889 0.172861,-0.167922 0.08396,-0.04939 0.09878,-0.05433 h 0.123472 v 0.839611 h -0.197555 q -0.07408,-0.212372 -0.182739,-0.380294 -0.246945,-0.385234 -0.587728,-0.385234 -0.13335,0 -0.227189,0.09878 -0.09384,0.09878 -0.09384,0.246945 0,0.187677 0.158045,0.316089 0.158044,0.123472 0.479072,0.286455 0.261761,0.13335 0.414867,0.237067 0.158044,0.09878 0.2667,0.246944 0.113594,0.148167 0.113594,0.345723 0,0.716139 -1.135945,0.716139 z"
         style="font-family:'Yeseva One';-inkscape-font-specification:'Yeseva One';fill:#344e41"
         id="path2803" />
      <path
         d="m 52.422927,31.278517 q -0.325966,0 -0.567972,-0.118534 -0.237067,-0.118533 -0.365478,-0.325966 -0.128411,-0.207434 -0.128411,-0.469195 v -1.506361 h -0.345722 v -0.123473 h 0.345722 v -0.246944 q 0,-0.4445 0.4445,-0.4445 h 0.345722 v 0.691444 h 0.691445 v 0.123473 h -0.691445 v 1.506361 q 0,0.454378 0.09384,0.6223 0.09384,0.167923 0.276578,0.167923 0.1778,0 0.31115,-0.172862 0.13335,-0.172861 0.13335,-0.469194 h 0.123472 q 0,0.365478 -0.182738,0.567972 -0.182739,0.197556 -0.484013,0.197556 z"
         style="font-family:'Yeseva One';-inkscape-font-specification:'Yeseva One';fill:#344e41"
         id="path2805" />
    </g>
  </g>
</svg>
